<?xml version="1.0" encoding="UTF-8"?>
<!DOCTYPE svg PUBLIC "-//W3C//DTD SVG 1.1//EN" "http://www.w3.org/Graphics/SVG/1.1/DTD/svg11.dtd">
<!-- Creator: CorelDRAW 2018 (64-Bit) -->
<svg xmlns="http://www.w3.org/2000/svg" xml:space="preserve" width="210mm" height="297mm" version="1.1" style="shape-rendering:geometricPrecision; text-rendering:geometricPrecision; image-rendering:optimizeQuality; fill-rule:evenodd; clip-rule:evenodd"
viewBox="0 0 21000 29700"
 xmlns:xlink="http://www.w3.org/1999/xlink">
 <defs>
  <style type="text/css">
   <![CDATA[
    .str0 {stroke:#2B2A29;stroke-width:20;stroke-miterlimit:22.9256}
    .fil1 {fill:none;fill-rule:nonzero}
    .fil0 {fill:url(#id0);fill-rule:nonzero}
   ]]>
  </style>
  <linearGradient id="id0" gradientUnits="userSpaceOnUse" x1="856.86" y1="333.8" x2="-6109.76" y2="4075.48">
   <stop offset="0" style="stop-opacity:1; stop-color:#2B2A29"/>
   <stop offset="1" style="stop-opacity:1; stop-color:#FEFEFE"/>
  </linearGradient>
 </defs>
 <g id="Слой_x0020_1">
  <metadata id="CorelCorpID_0Corel-Layer"/>
  <path class="fil0" d="M635.43 6.25c95.16,19.02 180.23,64.23 246.51,127.34 66.94,63.76 114.73,145.79 134.42,237.56l0 189.12c-19.69,91.76 -67.48,173.8 -134.42,237.56 -66.28,63.11 -151.35,108.32 -246.51,127.34l-203.02 0c-95.16,-19.02 -180.23,-64.23 -246.51,-127.34 -66.94,-63.76 -114.73,-145.8 -134.42,-237.56l0 -189.12c19.69,-91.77 67.48,-173.8 134.42,-237.56 66.28,-63.11 151.35,-108.32 246.51,-127.34l203.02 0zm232.75 141.8c-85.51,-81.42 -203.7,-131.8 -334.26,-131.8 -130.56,0 -248.75,50.38 -334.26,131.8 -85.37,81.31 -138.18,193.64 -138.18,317.66 0,124.03 52.81,236.35 138.18,317.66 85.51,81.42 203.7,131.8 334.26,131.8 130.56,0 248.75,-50.38 334.26,-131.8 85.37,-81.31 138.18,-193.63 138.18,-317.66 0,-124.02 -52.81,-236.35 -138.18,-317.66z"/>
  <line class="fil1 str0" x1="197.4" y1="355.84" x2="288.64" y2= "301.18" />
  <line class="fil1 str0" x1="782.77" y1="302.05" x2="856.86" y2= "333.8" />
  <path class="fil1 str0" d="M222.18 613c134.22,111.88 258.7,360.23 556.28,32.66l12.54 -22.08"/>
  <line class="fil1 str0" x1="533.92" y1="465.71" x2="528.77" y2= "598.38" />
 </g>
</svg>
